PathFileType	4	(X/Y/Z)	/Users/itak/Documents/Research/Walk-IL/dataset/trc/00445_00167.trc
DataRate	CameraRate	NumFrames	NumMarkers	Units	OrigDataRate	OrigDataStartFrame	OrigNumFrames
100.000000	100.000000	4	54	mm	100.000000	250	501
Frame#	Time	RPSI			L3			STRN			T10			C7			CLAV			RBAK			LBAK			LSHO			LUPA			LAEL			LAOL			LWTS			LWPS			LFRA			LIFD			LHPS			LHTS			RSHO			RUPA			RAEL			RAOL			RWTS			RWPS			RFRA			RIFD			RHTS			RHPS			RBHD			LFHD			RFHD			LBHD			LHIP			RHIP			RASI			LASI			LKNE			LTHI			LANK			LTIP			LTOE			LMT1			LMT5			LHEE			RKNE			RTHI			RANK			RTIP			RTOE			RMT1			RMT5			RHEE			LPSI			*53			
		X1	Y1	Z1	X2	Y2	Z2	X3	Y3	Z3	X4	Y4	Z4	X5	Y5	Z5	X6	Y6	Z6	X7	Y7	Z7	X8	Y8	Z8	X9	Y9	Z9	X10	Y10	Z10	X11	Y11	Z11	X12	Y12	Z12	X13	Y13	Z13	X14	Y14	Z14	X15	Y15	Z15	X16	Y16	Z16	X17	Y17	Z17	X18	Y18	Z18	X19	Y19	Z19	X20	Y20	Z20	X21	Y21	Z21	X22	Y22	Z22	X23	Y23	Z23	X24	Y24	Z24	X25	Y25	Z25	X26	Y26	Z26	X27	Y27	Z27	X28	Y28	Z28	X29	Y29	Z29	X30	Y30	Z30	X31	Y31	Z31	X32	Y32	Z32	X33	Y33	Z33	X34	Y34	Z34	X35	Y35	Z35	X36	Y36	Z36	X37	Y37	Z37	X38	Y38	Z38	X39	Y39	Z39	X40	Y40	Z40	X41	Y41	Z41	X42	Y42	Z42	X43	Y43	Z43	X44	Y44	Z44	X45	Y45	Z45	X46	Y46	Z46	X47	Y47	Z47	X48	Y48	Z48	X49	Y49	Z49	X50	Y50	Z50	X51	Y51	Z51	X52	Y52	Z52	X53	Y53	Z53	X54	Y54	Z54	

251	2.5	-717.2404174804688	942.4782104492188	-60.96125030517578	-655.95947265625	1048.269165039062	-85.08680725097656	-364.1769714355469	1166.459716796875	68.11578369140625	-633.6884765625	1170.094482421875	-73.69205474853516	-519.7913208007812	1400.184326171875	0.6185616254806519	-369.4853820800781	1285.716186523438	55.05335998535156	-641.4693603515625	1306.166870117188	48.56723022460938	-508.2950134277344	1363.139282226562	-101.080680847168	-379.2574768066406	1363.4677734375	-128.0950164794922	-375.45654296875	1283.48779296875	-252.5792388916016	-429.8218383789062	1096.877197265625	-348.45068359375	-529.0116577148438	1106.472290039062	-321.9029846191406	-402.6920776367188	892.9212036132812	-287.9762878417969	-435.9078369140625	872.9081420898438	-351.945068359375	-422.8526000976562	1006.193237304688	-356.5382690429688	-408.5262145996094	725.9498291015625	-273.9372253417969	-436.0915832519531	790.5062866210938	-339.2997741699219	-390.1929016113281	804.162841796875	-285.6527404785156	-534.15966796875	1359.348999023438	171.8010406494141	-592.6011962890625	1305.785034179688	227.5156860351562	-651.4720458984375	1026.6806640625	274.0294494628906	-700.1315307617188	1007.235961914062	229.1381072998047	-496.21875	874.016357421875	212.3913726806641	-555.4208374023438	831.8018188476562	261.5694885253906	-633.3829956054688	969.9363403320312	275.3705749511719	-435.4454345703125	729.1438598632812	206.9872741699219	-447.3043823242188	787.2890625	216.4201812744141	-507.5903015136719	757.7108154296875	253.4559783935547	-487.6736755371094	1577.141357421875	83.69905090332031	-292.6689147949219	1583.624755859375	15.80952835083008	-359.0108032226562	1600.095947265625	127.439208984375	-411.1677856445312	1558.525634765625	-76.86641693115234	-459.3832702636719	819.7757568359375	-189.5108337402344	-719.8983154296875	824.9706420898438	113.7745513916016	-597.3045043945312	852.0464477539062	123.0114593505859	-439.5863037109375	856.0720825195312	-71.57448577880859	-342.2816772460938	416.9543762207031	-74.66584777832031	-347.4097290039062	576.6807861328125	-112.8153228759766	-534.845703125	39.55171585083008	-173.11572265625	-394.9960632324219	265.9609069824219	-110.4303970336914	-389.2978515625	43.95691680908203	12.15734386444092	-465.38916015625	49.31179809570312	-4.32252311706543	-403.9010009765625	43.83256912231445	-101.2918014526367	-608.5969848632812	45.98231506347656	-161.7791137695312	-730.1924438476562	431.9718322753906	86.32216644287109	-696.4925537109375	682.111572265625	134.4192657470703	-1069.63427734375	294.3270874023438	-160.8965911865234	-842.907958984375	363.0386962890625	24.44249725341797	-1006.498596191406	91.3677978515625	-155.5196075439453	-990.0520629882812	148.4606170654297	-196.2890777587891	-1073.353149414062	164.3961486816406	-133.1019287109375	-1046.955688476562	357.7013549804688	-205.42333984375	-637.3936767578125	932.4392700195312	-177.7422485351562	nan	nan	nan	
252	2.51	-700.4659423828125	935.30029296875	-48.71010589599609	-638.0106811523438	1042.453735351562	-74.37706756591797	-345.9074096679688	1161.868896484375	79.43778991699219	-614.8692626953125	1164.820678710938	-64.25997924804688	-499.7048034667969	1396.854614257812	9.609122276306152	-350.3229064941406	1281.167846679688	65.78362274169922	-621.9442138671875	1303.200317382812	56.53798675537109	-488.6043395996094	1358.18896484375	-92.98383331298828	-359.7333679199219	1357.275756835938	-119.6746520996094	-353.7299499511719	1272.03369140625	-241.9062957763672	-397.8327331542969	1082.2216796875	-333.4811706542969	-498.0415649414062	1086.18212890625	-309.0980834960938	-358.0184020996094	883.7933959960938	-265.4012451171875	-389.1897583007812	859.557861328125	-328.9542541503906	-385.1241455078125	992.1278076171875	-337.958251953125	-351.137939453125	717.4164428710938	-247.3101654052734	-383.1300964355469	778.1412353515625	-314.3658142089844	-338.8520202636719	796.6610717773438	-260.6577758789062	-515.2390747070312	1356.740844726562	181.6032562255859	-575.1333618164062	1303.972045898438	236.8963317871094	-643.5040283203125	1026.221435546875	283.0333557128906	-691.9840087890625	1009.797973632812	236.9810485839844	-500.1221008300781	860.2211303710938	227.3568572998047	-564.168701171875	824.7362060546875	275.5772094726562	-630.2754516601562	968.2164306640625	285.5901794433594	-453.5362854003906	709.9344482421875	228.4556427001953	-459.4002990722656	769.3995971679688	235.2303009033203	-523.541748046875	746.6871337890625	271.0443115234375	-467.7952270507812	1573.994873046875	92.1640625	-272.7116394042969	1581.101928710938	24.71054458618164	-339.3246154785156	1597.559326171875	136.1826171875	-390.9459533691406	1555.359985351562	-68.172607421875	-442.6575622558594	815.0955810546875	-180.1516723632812	-698.4180297851562	818.3838500976562	127.5345840454102	-576.70751953125	847.5438232421875	134.1809997558594	-420.3493347167969	852.0391235351562	-62.50735855102539	-335.66552734375	409.05615234375	-68.19239807128906	-336.549072265625	568.1993408203125	-104.9996109008789	-536.02392578125	39.16997146606445	-173.8005676269531	-391.6792907714844	260.1681213378906	-106.5275573730469	-390.8043212890625	42.27841186523438	12.58547687530518	-466.7280883789062	48.14726638793945	-4.623069286346436	-404.6521911621094	43.61477279663086	-101.9282073974609	-609.758056640625	45.25511169433594	-162.5256805419922	-695.0603637695312	427.2672119140625	110.3389587402344	-670.5663452148438	677.2621459960938	151.3464813232422	-1035.67041015625	305.93994140625	-140.2378845214844	-808.0891723632812	363.0245666503906	46.57079696655273	-976.0467529296875	100.8362808227539	-133.3657379150391	-959.1815795898438	157.8757019042969	-175.0258331298828	-1041.022338867188	176.3719482421875	-110.6266174316406	-1012.638610839844	368.4175415039062	-185.7841644287109	-621.15185546875	928.0416259765625	-166.5550384521484	nan	nan	nan	
253	2.52	-683.8842163085938	927.894775390625	-36.59086227416992	-620.2135009765625	1036.304077148438	-63.4806022644043	-327.7990417480469	1156.77734375	90.73171234130859	-596.259033203125	1159.180786132812	-54.48480224609375	-479.7969665527344	1393.35205078125	18.77626991271973	-331.2069396972656	1276.131225585938	76.72148895263672	-602.5784912109375	1299.91552734375	64.70234680175781	-469.0875244140625	1353.068603515625	-84.72305297851562	-340.2179870605469	1350.85302734375	-110.9964141845703	-332.0413818359375	1260.252685546875	-230.5934753417969	-365.1136169433594	1067.86474609375	-317.4676818847656	-466.0305786132812	1065.737915039062	-295.2684631347656	-312.8600769042969	876.2999267578125	-241.7073516845703	-341.5065612792969	848.0165405273438	-304.7593688964844	-346.582275390625	978.966064453125	-318.2114562988281	-293.3689270019531	711.6009521484375	-219.5070648193359	-329.3542175292969	768.142578125	-288.2138671875	-287.1326904296875	791.3643188476562	-234.5072326660156	-496.3887939453125	1353.878540039062	191.5824737548828	-557.7406616210938	1301.852661132812	246.3956909179688	-635.979248046875	1026.17138671875	291.802490234375	-683.8187866210938	1012.67431640625	244.3634948730469	-505.7909240722656	847.9253540039062	242.2615509033203	-574.1187133789062	819.6649169921875	289.2090759277344	-627.759521484375	967.34716796875	295.5081176757812	-473.9524536132812	694.0369262695312	249.9067230224609	-473.7577514648438	754.0811157226562	254.1675109863281	-541.007568359375	738.5422973632812	288.4487609863281	-448.0458984375	1570.724975585938	100.9171905517578	-252.9169769287109	1578.398559570312	33.81967544555664	-319.7530517578125	1594.864013671875	145.16552734375	-370.9356689453125	1552.036743164062	-59.21675109863281	-426.2004089355469	810.5758056640625	-171.0170440673828	-677.1033325195312	811.724609375	141.1271667480469	-556.3430786132812	842.6962280273438	145.2101745605469	-401.3385009765625	847.7783813476562	-53.69615173339844	-329.4529113769531	401.5213317871094	-62.17810440063477	-326.2143249511719	560.0664672851562	-97.57167053222656	-536.9552612304688	38.85777282714844	-174.7057800292969	-388.5060119628906	254.7033081054688	-102.9500045776367	-392.1788635253906	41.27542114257812	12.75302600860596	-467.9884948730469	47.45310211181641	-5.128668308258057	-405.3642883300781	43.57144927978516	-102.6831970214844	-610.756103515625	44.57634353637695	-163.6365051269531	-659.1295776367188	423.5609436035156	134.8179779052734	-644.7131958007812	672.8426513671875	168.5025634765625	-999.7797241210938	315.19775390625	-118.2375183105469	-772.002197265625	363.2316284179688	69.4163818359375	-941.9383544921875	108.786506652832	-109.7286834716797	-925.3658447265625	165.5426635742188	-152.4636840820312	-1005.58544921875	186.0973052978516	-86.62480163574219	-976.9917602539062	376.882568359375	-164.9374084472656	-605.1192016601562	923.8544311523438	-155.4414672851562	nan	nan	nan	
254	2.53	-667.3301391601562	920.8656616210938	-24.51506805419922	-602.4902954101562	1030.345092773438	-52.36427307128906	-309.7544250488281	1151.573364257812	102.0598526000977	-577.7947998046875	1153.655639648438	-44.30427169799805	-460.0721435546875	1389.933227539062	28.13497734069824	-312.1446838378906	1270.993896484375	87.87728881835938	-583.3665771484375	1296.616821289062	73.16595458984375	-449.7235107421875	1348.098999023438	-76.23096466064453	-320.6834106445312	1344.547485351562	-101.9670562744141	-310.3968811035156	1248.633056640625	-218.5591888427734	-331.9179077148438	1054.365844726562	-300.2822570800781	-433.1581420898438	1045.766479492188	-280.1114807128906	-267.5894165039062	871.0066528320312	-216.8755798339844	-293.2186279296875	838.8663330078125	-279.3096923828125	-307.5413208007812	967.3089599609375	-297.2359924316406	-235.7913055419922	709.111572265625	-190.3137359619141	-275.2188110351562	761.078369140625	-260.7043762207031	-235.5067291259766	788.8150634765625	-207.1054382324219	-477.6078491210938	1351.023071289062	201.7296905517578	-540.4002075195312	1299.72998046875	256.0075378417969	-628.7969970703125	1026.832397460938	300.3681335449219	-675.5540771484375	1016.126831054688	251.3496246337891	-512.8827514648438	837.58984375	256.9567260742188	-584.9144897460938	816.8944091796875	302.2272033691406	-625.64208984375	967.619873046875	305.07958984375	-496.2010803222656	681.8594360351562	270.8211669921875	-489.9584655761719	741.7673950195312	272.8553161621094	-559.5452270507812	733.5877685546875	305.2294616699219	-428.4277038574219	1567.574951171875	110.0156097412109	-233.2793731689453	1575.697631835938	43.18676376342773	-300.2772216796875	1592.1943359375	154.443603515625	-351.1399841308594	1548.800903320312	-49.95011901855469	-410.0244445800781	806.5266723632812	-161.9801177978516	-655.926025390625	805.484619140625	154.5124816894531	-536.1426391601562	837.962890625	156.1460266113281	-382.5338439941406	843.5686645507812	-45.00883483886719	-323.7140502929688	394.4986572265625	-56.74401473999023	-316.3974609375	552.5531005859375	-90.59868621826172	-537.6495361328125	38.57286071777344	-175.6259765625	-385.5420532226562	249.6352081298828	-99.74372100830078	-393.3106689453125	40.76918792724609	12.77061080932617	-469.0696411132812	47.07434463500977	-5.678295135498047	-405.986083984375	43.62353897094727	-103.4150085449219	-611.5823364257812	43.95658111572266	-164.8499450683594	-622.4468994140625	421.1585998535156	159.6730194091797	-618.9413452148438	669.2716674804688	185.7842712402344	-962.1834106445312	321.7106323242188	-95.07543182373047	-734.7393798828125	363.7287902832031	92.92303466796875	-904.176513671875	114.7739410400391	-84.56535339355469	-888.6047973632812	171.1117553710938	-128.5457611083984	-967.1672973632812	193.2071075439453	-61.18415451049805	-940.2706298828125	382.6714477539062	-143.090576171875	-589.128173828125	920.283447265625	-144.2377166748047	nan	nan	nan	
